<mxfile host="Electron" agent="Mozilla/5.0 (Windows NT 10.0; Win64; x64) AppleWebKit/537.36 (KHTML, like Gecko) draw.io/28.1.2 Chrome/138.0.7204.243 Electron/37.4.0 Safari/537.36" version="28.1.2">
  <diagram name="Página-1" id="2uGP8_mqlpEV-S4xiCjs">
    <mxGraphModel dx="690" dy="593" grid="1" gridSize="10" guides="1" tooltips="1" connect="1" arrows="1" fold="1" page="1" pageScale="1" pageWidth="827" pageHeight="1169" math="0" shadow="0">
      <root>
        <mxCell id="0" />
        <mxCell id="1" parent="0" />
        <mxCell id="lbZ6_WGegQUa8UAt2n1b-69" style="edgeStyle=orthogonalEdgeStyle;rounded=0;orthogonalLoop=1;jettySize=auto;html=1;" edge="1" parent="1" source="lbZ6_WGegQUa8UAt2n1b-16">
          <mxGeometry relative="1" as="geometry">
            <mxPoint x="210" y="523" as="targetPoint" />
          </mxGeometry>
        </mxCell>
        <mxCell id="lbZ6_WGegQUa8UAt2n1b-16" value="Armazenamento de dados" style="outlineConnect=0;dashed=0;verticalLabelPosition=bottom;verticalAlign=top;align=center;html=1;shape=mxgraph.aws3.s3;fillColor=#E05243;gradientColor=none;fontColor=#FFFF33;" vertex="1" parent="1">
          <mxGeometry x="48" y="480" width="72" height="86" as="geometry" />
        </mxCell>
        <mxCell id="lbZ6_WGegQUa8UAt2n1b-67" style="edgeStyle=orthogonalEdgeStyle;rounded=0;orthogonalLoop=1;jettySize=auto;html=1;" edge="1" parent="1" source="lbZ6_WGegQUa8UAt2n1b-43">
          <mxGeometry relative="1" as="geometry">
            <mxPoint x="75" y="330" as="targetPoint" />
          </mxGeometry>
        </mxCell>
        <mxCell id="lbZ6_WGegQUa8UAt2n1b-43" value="Login" style="sketch=0;outlineConnect=0;fontColor=#FFFF66;fillColor=#6a00ff;strokeColor=#3700CC;dashed=0;verticalLabelPosition=bottom;verticalAlign=top;align=center;html=1;fontSize=12;fontStyle=0;aspect=fixed;pointerEvents=1;shape=mxgraph.aws4.client;" vertex="1" parent="1">
          <mxGeometry x="46.26" y="202" width="57.48" height="56" as="geometry" />
        </mxCell>
        <mxCell id="lbZ6_WGegQUa8UAt2n1b-68" style="edgeStyle=orthogonalEdgeStyle;rounded=0;orthogonalLoop=1;jettySize=auto;html=1;" edge="1" parent="1" source="lbZ6_WGegQUa8UAt2n1b-52">
          <mxGeometry relative="1" as="geometry">
            <mxPoint x="79.5" y="470" as="targetPoint" />
          </mxGeometry>
        </mxCell>
        <mxCell id="lbZ6_WGegQUa8UAt2n1b-52" value="Trasnferencia de dados" style="sketch=0;outlineConnect=0;fontColor=#FFFF33;fillColor=#1ba1e2;strokeColor=#006EAF;dashed=0;verticalLabelPosition=bottom;verticalAlign=top;align=center;html=1;fontSize=12;fontStyle=0;aspect=fixed;pointerEvents=1;shape=mxgraph.aws4.internet_alt22;" vertex="1" parent="1">
          <mxGeometry x="48" y="340" width="63" height="63" as="geometry" />
        </mxCell>
        <mxCell id="lbZ6_WGegQUa8UAt2n1b-66" style="edgeStyle=orthogonalEdgeStyle;rounded=0;orthogonalLoop=1;jettySize=auto;html=1;" edge="1" parent="1" source="lbZ6_WGegQUa8UAt2n1b-54">
          <mxGeometry relative="1" as="geometry">
            <mxPoint x="77.75" y="200" as="targetPoint" />
          </mxGeometry>
        </mxCell>
        <mxCell id="lbZ6_WGegQUa8UAt2n1b-54" value="Usuario" style="sketch=0;outlineConnect=0;fontColor=#FFFF66;fillColor=#60a917;strokeColor=#2D7600;dashed=0;verticalLabelPosition=bottom;verticalAlign=top;align=center;html=1;fontSize=12;fontStyle=0;aspect=fixed;pointerEvents=1;shape=mxgraph.aws4.user;" vertex="1" parent="1">
          <mxGeometry x="47.5" y="81.25" width="60.5" height="60.5" as="geometry" />
        </mxCell>
        <mxCell id="lbZ6_WGegQUa8UAt2n1b-70" style="edgeStyle=orthogonalEdgeStyle;rounded=0;orthogonalLoop=1;jettySize=auto;html=1;" edge="1" parent="1" source="lbZ6_WGegQUa8UAt2n1b-55">
          <mxGeometry relative="1" as="geometry">
            <mxPoint x="370" y="524.5" as="targetPoint" />
          </mxGeometry>
        </mxCell>
        <mxCell id="lbZ6_WGegQUa8UAt2n1b-55" value="Upload de dados" style="outlineConnect=0;dashed=0;verticalLabelPosition=bottom;verticalAlign=top;align=center;html=1;shape=mxgraph.aws3.lambda;fillColor=#F58534;gradientColor=none;fontColor=#FFFF66;" vertex="1" parent="1">
          <mxGeometry x="220" y="482" width="70" height="85" as="geometry" />
        </mxCell>
        <mxCell id="lbZ6_WGegQUa8UAt2n1b-71" style="edgeStyle=orthogonalEdgeStyle;rounded=0;orthogonalLoop=1;jettySize=auto;html=1;" edge="1" parent="1" source="lbZ6_WGegQUa8UAt2n1b-56" target="lbZ6_WGegQUa8UAt2n1b-57">
          <mxGeometry relative="1" as="geometry" />
        </mxCell>
        <mxCell id="lbZ6_WGegQUa8UAt2n1b-75" style="edgeStyle=orthogonalEdgeStyle;rounded=0;orthogonalLoop=1;jettySize=auto;html=1;" edge="1" parent="1" source="lbZ6_WGegQUa8UAt2n1b-56">
          <mxGeometry relative="1" as="geometry">
            <mxPoint x="407.5" y="430" as="targetPoint" />
          </mxGeometry>
        </mxCell>
        <mxCell id="lbZ6_WGegQUa8UAt2n1b-56" value="Estância para processar dados" style="outlineConnect=0;dashed=0;verticalLabelPosition=bottom;verticalAlign=top;align=center;html=1;shape=mxgraph.aws3.ec2;fillColor=#F58534;gradientColor=none;fontColor=#FFFF66;" vertex="1" parent="1">
          <mxGeometry x="375" y="484" width="65" height="84" as="geometry" />
        </mxCell>
        <mxCell id="lbZ6_WGegQUa8UAt2n1b-57" value="Armazenamento de dados ec2" style="outlineConnect=0;dashed=0;verticalLabelPosition=bottom;verticalAlign=top;align=center;html=1;shape=mxgraph.aws3.volume;fillColor=#E05243;gradientColor=none;fontColor=#FFFF66;" vertex="1" parent="1">
          <mxGeometry x="599" y="435" width="55.88" height="61" as="geometry" />
        </mxCell>
        <mxCell id="lbZ6_WGegQUa8UAt2n1b-72" style="edgeStyle=orthogonalEdgeStyle;rounded=0;orthogonalLoop=1;jettySize=auto;html=1;" edge="1" parent="1" source="lbZ6_WGegQUa8UAt2n1b-58">
          <mxGeometry relative="1" as="geometry">
            <mxPoint x="405" y="480" as="targetPoint" />
          </mxGeometry>
        </mxCell>
        <mxCell id="lbZ6_WGegQUa8UAt2n1b-79" style="edgeStyle=orthogonalEdgeStyle;rounded=0;orthogonalLoop=1;jettySize=auto;html=1;" edge="1" parent="1" source="lbZ6_WGegQUa8UAt2n1b-58">
          <mxGeometry relative="1" as="geometry">
            <mxPoint x="630" y="430" as="targetPoint" />
          </mxGeometry>
        </mxCell>
        <mxCell id="lbZ6_WGegQUa8UAt2n1b-58" value="Imagem da 1 estância" style="outlineConnect=0;dashed=0;verticalLabelPosition=bottom;verticalAlign=top;align=center;html=1;shape=mxgraph.aws3.ami;fillColor=#F58534;gradientColor=none;fontColor=#FFFF66;" vertex="1" parent="1">
          <mxGeometry x="375" y="360" width="60" height="60" as="geometry" />
        </mxCell>
        <mxCell id="lbZ6_WGegQUa8UAt2n1b-65" value="Bckup" style="outlineConnect=0;dashed=0;verticalLabelPosition=bottom;verticalAlign=top;align=center;html=1;shape=mxgraph.aws3.snapshot;fillColor=#E05243;gradientColor=none;fontColor=#FFFF66;" vertex="1" parent="1">
          <mxGeometry x="597" y="258" width="60" height="73.5" as="geometry" />
        </mxCell>
        <mxCell id="lbZ6_WGegQUa8UAt2n1b-74" style="edgeStyle=orthogonalEdgeStyle;rounded=0;orthogonalLoop=1;jettySize=auto;html=1;entryX=0.5;entryY=0;entryDx=0;entryDy=0;entryPerimeter=0;" edge="1" parent="1" source="lbZ6_WGegQUa8UAt2n1b-43" target="lbZ6_WGegQUa8UAt2n1b-58">
          <mxGeometry relative="1" as="geometry" />
        </mxCell>
        <mxCell id="lbZ6_WGegQUa8UAt2n1b-80" style="edgeStyle=orthogonalEdgeStyle;rounded=0;orthogonalLoop=1;jettySize=auto;html=1;entryX=0.5;entryY=0;entryDx=0;entryDy=0;entryPerimeter=0;" edge="1" parent="1" source="lbZ6_WGegQUa8UAt2n1b-65" target="lbZ6_WGegQUa8UAt2n1b-57">
          <mxGeometry relative="1" as="geometry" />
        </mxCell>
      </root>
    </mxGraphModel>
  </diagram>
</mxfile>
